<svg width="1472" height="1609" xmlns="http://www.w3.org/2000/svg" xmlns:xlink="http://www.w3.org/1999/xlink" xml:space="preserve" overflow="hidden"><defs><clipPath id="clip0"><rect x="1199" y="139" width="1472" height="1609"/></clipPath></defs><g clip-path="url(#clip0)" transform="translate(-1199 -139)"><path d="M1987.5 782.5 2340.61 894.707" stroke="#82B842" stroke-width="9.16667" stroke-linejoin="round" stroke-miterlimit="10" fill="none" fill-rule="evenodd"/><path d="M1363.5 220.501C1363.5 212.216 1370.22 205.5 1378.5 205.5L1893.5 205.5C1901.78 205.5 1908.5 212.216 1908.5 220.501L1908.5 280.5C1908.5 288.784 1901.78 295.5 1893.5 295.5L1378.5 295.5C1370.22 295.5 1363.5 288.784 1363.5 280.5Z" stroke="#82B842" stroke-width="9.16667" stroke-linejoin="round" stroke-miterlimit="10" fill="#FFFFFF" fill-rule="evenodd"/><text font-family="Arial,Arial_MSFontService,sans-serif" font-weight="400" font-size="41" transform="matrix(1 0 0 1 1531.6 265)">Videoström</text><path d="M2067.5 220.501C2067.5 212.216 2074.22 205.5 2082.5 205.5L2597.5 205.5C2605.78 205.5 2612.5 212.216 2612.5 220.501L2612.5 280.5C2612.5 288.784 2605.78 295.5 2597.5 295.5L2082.5 295.5C2074.22 295.5 2067.5 288.784 2067.5 280.5Z" stroke="#82B842" stroke-width="9.16667" stroke-linejoin="round" stroke-miterlimit="10" fill="#FFFFFF" fill-rule="evenodd"/><text font-family="Arial,Arial_MSFontService,sans-serif" font-weight="400" font-size="41" transform="matrix(1 0 0 1 2213.65 265)">Telemetridata</text><path d="M2067.5 364.667C2067.5 354.634 2075.63 346.5 2085.67 346.5L2594.33 346.5C2604.37 346.5 2612.5 354.634 2612.5 364.667L2612.5 437.333C2612.5 447.366 2604.37 455.5 2594.33 455.5L2085.67 455.5C2075.63 455.5 2067.5 447.366 2067.5 437.333Z" stroke="#82B842" stroke-width="9.16667" stroke-linejoin="round" stroke-miterlimit="10" fill="#FFFFFF" fill-rule="evenodd"/><text font-family="Arial,Arial_MSFontService,sans-serif" font-weight="400" font-size="41" transform="matrix(1 0 0 1 2148.34 399)">Konvertera till GPMF<tspan font-size="28" x="-24.6355" y="36">https://github.com/gopro/gpmf</tspan><tspan font-size="28" x="339.74" y="36">-</tspan><tspan font-size="28" x="348.906" y="36">write</tspan></text><path d="M1714.5 559C1714.5 548.231 1723.23 539.5 1734 539.5L2240 539.5C2250.77 539.5 2259.5 548.231 2259.5 559L2259.5 636.999C2259.5 647.769 2250.77 656.5 2240 656.5L1734 656.5C1723.23 656.5 1714.5 647.769 1714.5 636.999Z" stroke="#82B842" stroke-width="9.16667" stroke-linejoin="round" stroke-miterlimit="10" fill="#FFFFFF" fill-rule="evenodd"/><text font-family="Arial,Arial_MSFontService,sans-serif" font-weight="400" font-size="41" transform="matrix(1 0 0 1 1758.56 588)">Lägg till spår med GPMF <tspan font-size="41" x="76.7708" y="50">i videoströmmen</tspan></text><path d="M1636.5 295.5 1987.21 538.947" stroke="#82B842" stroke-width="9.16667" stroke-linejoin="round" stroke-miterlimit="10" fill="none" fill-rule="evenodd"/><path d="M2340.5 295.5 2340.5 346.369" stroke="#82B842" stroke-width="9.16667" stroke-linejoin="round" stroke-miterlimit="10" fill="none" fill-rule="evenodd"/><path d="M0 0 353.106 83.569" stroke="#82B842" stroke-width="9.16667" stroke-linejoin="round" stroke-miterlimit="10" fill="none" fill-rule="evenodd" transform="matrix(-1 0 0 1 2340.61 455.5)"/><path d="M1363.5 921.167C1363.5 906.439 1375.44 894.5 1390.17 894.5L1881.83 894.5C1896.56 894.5 1908.5 906.439 1908.5 921.167L1908.5 1027.83C1908.5 1042.56 1896.56 1054.5 1881.83 1054.5L1390.17 1054.5C1375.44 1054.5 1363.5 1042.56 1363.5 1027.83Z" stroke="#82B842" stroke-width="9.16667" stroke-linejoin="round" stroke-miterlimit="10" fill="#FFFFFF" fill-rule="evenodd"/><text font-family="Arial,Arial_MSFontService,sans-serif" font-weight="400" font-size="41" transform="matrix(1 0 0 1 1435.35 940)">Implementera stöd för <tspan font-size="41" x="20.625" y="50">strömmande video i </tspan><tspan font-size="41" x="119.167" y="99">Gyroflow</tspan></text><path d="M2067.5 914.167C2067.5 903.305 2076.31 894.5 2087.17 894.5L2592.83 894.5C2603.69 894.5 2612.5 903.305 2612.5 914.167L2612.5 992.833C2612.5 1003.69 2603.69 1012.5 2592.83 1012.5L2087.17 1012.5C2076.31 1012.5 2067.5 1003.69 2067.5 992.833Z" stroke="#82B842" stroke-width="9.16667" stroke-linejoin="round" stroke-miterlimit="10" fill="#FFFFFF" fill-rule="evenodd"/><text font-family="Arial,Arial_MSFontService,sans-serif" font-weight="400" font-size="41" transform="matrix(1 0 0 1 2152.92 944)">Buffra videoström till <tspan font-size="41" x="104.271" y="50">MP4</tspan><tspan font-size="41" x="189.063" y="50">-</tspan><tspan font-size="41" x="202.813" y="50">filer</tspan></text><path d="M2067.5 1092.33C2067.5 1068.13 2087.13 1048.5 2111.33 1048.5L2568.67 1048.5C2592.88 1048.5 2612.5 1068.13 2612.5 1092.33L2612.5 1267.67C2612.5 1291.87 2592.88 1311.5 2568.67 1311.5L2111.33 1311.5C2087.13 1311.5 2067.5 1291.87 2067.5 1267.67Z" stroke="#82B842" stroke-width="9.16667" stroke-linejoin="round" stroke-miterlimit="10" fill="#FFFFFF" fill-rule="evenodd"/><text font-family="Arial,Arial_MSFontService,sans-serif" font-weight="400" font-size="41" transform="matrix(1 0 0 1 2115.11 1096)">Kör<tspan font-size="41" x="75.625" y="0">Gyroflow</tspan><tspan font-size="41" x="249.792" y="0">CLI, gamla </tspan><tspan font-size="41" x="90.5208" y="50">versionen eller </tspan><tspan font-size="41" x="9.1665" y="99">implementera i nya. Alt. </tspan><tspan font-size="41" x="57.2915" y="149">använda kön i nya </tspan><tspan font-size="41" x="129.479" y="198">versionen.</tspan></text><path d="M2067.5 1375.17C2067.5 1360.44 2079.44 1348.5 2094.17 1348.5L2585.83 1348.5C2600.56 1348.5 2612.5 1360.44 2612.5 1375.17L2612.5 1481.83C2612.5 1496.56 2600.56 1508.5 2585.83 1508.5L2094.17 1508.5C2079.44 1508.5 2067.5 1496.56 2067.5 1481.83Z" stroke="#82B842" stroke-width="9.16667" stroke-linejoin="round" stroke-miterlimit="10" fill="#FFFFFF" fill-rule="evenodd"/><text font-family="Arial,Arial_MSFontService,sans-serif" font-weight="400" font-size="41" transform="matrix(1 0 0 1 2133.44 1418)">Skapa videoström från <tspan font-size="41" x="2.2915" y="50">stabiliserade MP4</tspan><tspan font-size="41" x="330" y="50">-</tspan>filer <tspan font-size="41" x="-737.072" y="-552">Alt. 1</tspan><tspan font-size="41" x="350.236" y="-550">Alt. 2</tspan></text><path d="M1714.5 1582.5C1714.5 1574.22 1721.22 1567.5 1729.5 1567.5L2244.5 1567.5C2252.78 1567.5 2259.5 1574.22 2259.5 1582.5L2259.5 1642.5C2259.5 1650.78 2252.78 1657.5 2244.5 1657.5L1729.5 1657.5C1721.22 1657.5 1714.5 1650.78 1714.5 1642.5Z" stroke="#82B842" stroke-width="9.16667" stroke-linejoin="round" stroke-miterlimit="10" fill="#FFFFFF" fill-rule="evenodd"/><text font-family="Arial,Arial_MSFontService,sans-serif" font-weight="400" font-size="41" transform="matrix(1 0 0 1 1772.31 1627)">Stabiliserad videoström</text><path d="M0 0 0.000360892 36.1416" stroke="#82B842" stroke-width="9.16667" stroke-linejoin="round" stroke-miterlimit="10" fill="none" fill-rule="evenodd" transform="matrix(-1 0 0 1 2340.5 1012.5)"/><path d="M2340.5 1311.5 2340.5 1347.64" stroke="#82B842" stroke-width="9.16667" stroke-linejoin="round" stroke-miterlimit="10" fill="none" fill-rule="evenodd"/><path d="M1307.5 239.002C1307.5 186.257 1350.26 143.5 1403 143.5L2571 143.5C2623.74 143.5 2666.5 186.257 2666.5 239.002L2666.5 620.998C2666.5 673.742 2623.74 716.5 2571 716.5L1403 716.5C1350.26 716.5 1307.5 673.742 1307.5 620.998Z" stroke="#82B842" stroke-width="9.16667" stroke-linejoin="round" stroke-miterlimit="10" stroke-dasharray="36.6667 27.5" fill="none" fill-rule="evenodd"/><path d="M1307.5 942.67C1307.5 854.211 1379.21 782.5 1467.67 782.5L2506.33 782.5C2594.79 782.5 2666.5 854.211 2666.5 942.67L2666.5 1583.33C2666.5 1671.79 2594.79 1743.5 2506.33 1743.5L1467.67 1743.5C1379.21 1743.5 1307.5 1671.79 1307.5 1583.33Z" stroke="#82B842" stroke-width="9.16667" stroke-linejoin="round" stroke-miterlimit="10" stroke-dasharray="36.6667 27.5" fill="none" fill-rule="evenodd"/><text font-family="Arial,Arial_MSFontService,sans-serif" font-weight="400" font-size="41" transform="matrix(-1.83697e-16 -1 1 -1.83697e-16 1255.77 550)">Raspberry<tspan font-size="41" x="201" y="3.69231e-14">Pi</tspan><tspan font-size="41" x="-774" y="-1.42182e-13">Server</tspan></text><path d="M1987.5 656.5 1987.5 782.703" stroke="#82B842" stroke-width="9.16667" stroke-linejoin="round" stroke-miterlimit="10" fill="none" fill-rule="evenodd"/><path d="M1636.5 1054.5 1987.21 1566.93" stroke="#82B842" stroke-width="9.16667" stroke-linejoin="round" stroke-miterlimit="10" fill="none" fill-rule="evenodd"/><path d="M0 0 353.106 59.234" stroke="#82B842" stroke-width="9.16667" stroke-linejoin="round" stroke-miterlimit="10" fill="none" fill-rule="evenodd" transform="matrix(-1 0 0 1 2340.61 1508.5)"/><path d="M0 0 350.711 112.207" stroke="#82B842" stroke-width="9.16667" stroke-linejoin="round" stroke-miterlimit="10" fill="none" fill-rule="evenodd" transform="matrix(-1 0 0 1 1987.21 782.5)"/></g></svg>